<svg xmlns="http://www.w3.org/2000/svg" width="282" height="44">
    <defs>
        <clipPath id="a">
            <path data-name="사각형 218" d="M0 0h279a3 3 0 0 1 3 3v38a3 3 0 0 1-3 3H0V0z" transform="translate(1590 112)" style="fill:#fff;stroke:#707070"/>
        </clipPath>
    </defs>
    <g data-name="Delete_btn_n" transform="translate(-1590 -112)" style="clip-path:url(#a)">
        <g data-name="그룹 579">
            <text data-name="✏️ Label" transform="translate(1741 140)" style="font-size:14px;font-family:NotoSansCJKkr-Regular,Noto Sans CJK KR"><tspan x="-25.76" y="0">삭제하기</tspan></text>
            <path data-name="패스 282" d="M0 0h16v16H0z" style="fill:none" transform="translate(1695 126)"/>
            <path data-name="패스 283" d="M1699.286 138.507a1.267 1.267 0 0 0 1.237 1.288h4.949a1.267 1.267 0 0 0 1.237-1.288v-6.442a1.267 1.267 0 0 0-1.237-1.288h-4.949a1.267 1.267 0 0 0-1.237 1.288zm7.424-9.662-1.543-6.442-.439-.457a3.135 3.135 0 0 0-.437 6.254h-2.586a.612.612 0 0 0-.433.187l-.439.457h-1.547a.645.645 0 0 0 0 1.288h7.424a.645.645 0 0 0 0-1.288z"/>
        </g>
    </g>
</svg>
