<svg xmlns="http://www.w3.org/2000/svg" width="282" height="44">
    <defs>
        <clipPath id="a">
            <path data-name="사각형 216" d="M3 0h279v44H3a3 3 0 0 1-3-3V3a3 3 0 0 1 3-3z" transform="translate(1024 112)" style="fill:#fff;stroke:#707070"/>
        </clipPath>
    </defs>
    <g data-name="Edit_btn_n" transform="translate(-1024 -112)" style="clip-path:url(#a)">
        <g data-name="그룹 581">
            <text data-name="✏️ Label" transform="translate(1176 140)" style="font-size:14px;font-family:NotoSansCJKkr-Regular,Noto Sans CJK KR"><tspan x="-25.76" y="0">수정하기</tspan></text>
            <path data-name="패스 284" d="M0 0h16v16H0z" style="fill:none" transform="translate(1130 126)"/>
            <path data-name="패스 285" d="M1132.2 137.515v1.958a.319.319 0 0 0 .322.322h1.958a.3.3 0 0 0 .225-.1l7.035-7.024-2.415-2.416-7.025 7.028a.316.316 0 0 0-.1.232zm11.408-6.714a.642.642 0 0 0 0-.908l-1.508-1.506a.642.642 0 0 0-.908 0l-1.178 1.179 2.415 2.415 1.179-1.18z"/>
        </g>
    </g>
</svg>
